# xmcd
#
# Track frame offsets:
#	150
#	20465
#	42218
#	63713
#	83543
#	97685
#	121125
#	143475
#	165863
#	187713
#	206113
#	218383
#
# Disc length: 3165 seconds
#
# Revision: 6
# Processed by: cddbd v1.5.2PL0 Copyright (c) Steve Scherf et al.
# Submitted via: EasyCDDAExtractor 15.3.0.1
#
DISCID=870c5b0c
DTITLE=Whitney Houston - The Bodyguard
DYEAR=1992
DGENRE=Pop
TTITLE0=Whitney Houston - I Will Always Love You
TTITLE1=Whitney Houston - I Have Nothing
TTITLE2=Whitney Houston - I'm Every Woman
TTITLE3=Whitney Houston - Run To You
TTITLE4=Whitney Houston - Queen Of The Night
TTITLE5=Whitney Houston - Jesus Loves Me
TTITLE6=Kenny G And Aaron Neville - Even If My Heart Would Break
TTITLE7=Lisa Stanfield - Someday (I'm Coming Back)
TTITLE8=The S.O.U.L. S.Y.S.T.E.M. - It's Gonna Be A Lovely Day
TTITLE9=Curtis Stigers - (What's So Funny 'Bout) Peace, Love And Understanding
TTITLE10=Whitney Houston - Theme From The Bodyguard
TTITLE11=Joe Cocker Featuring Sass Jordan - Trust In Me
EXTD=
EXTT0=
EXTT1=
EXTT2=
EXTT3=
EXTT4=
EXTT5=
EXTT6=
EXTT7=
EXTT8=
EXTT9=
EXTT10=
EXTT11=
PLAYORDER=
